<svg width="43" height="33" viewBox="0 0 43 33" fill="none" xmlns="http://www.w3.org/2000/svg">
<path d="M37.9731 2.77574C37.8381 2.78792 37.703 2.79401 37.571 2.81229C37.3746 2.84274 37.2242 2.9463 37.1321 3.12295C37.0707 3.24173 37.0155 3.36356 36.9694 3.49148C36.8467 3.82346 36.773 4.17067 36.6809 4.50874C36.6686 4.55442 36.6656 4.6062 36.6564 4.65189C36.6533 4.67016 36.6502 4.69148 36.641 4.70671C36.6195 4.75239 36.5796 4.77676 36.5336 4.77067C36.4876 4.76458 36.4507 4.72803 36.4476 4.67625C36.4446 4.64884 36.4446 4.61838 36.4507 4.58793C36.4691 4.47219 36.463 4.3595 36.4507 4.24681C36.4262 4.02447 36.3924 3.80214 36.3218 3.58894C36.2328 3.33615 36.0977 3.11381 35.886 2.9402C35.7785 2.85188 35.668 2.7666 35.5575 2.67828C35.3887 2.54426 35.1954 2.45594 34.9958 2.37675C34.9652 2.36457 34.9283 2.36152 34.8915 2.34934C34.8669 2.34325 34.8393 2.33716 34.8148 2.32497C34.7626 2.30061 34.7411 2.24883 34.7534 2.19706C34.7656 2.14832 34.8117 2.11787 34.8669 2.12396C34.9068 2.127 34.9498 2.13614 34.9897 2.14832C35.2168 2.21837 35.4501 2.20315 35.6834 2.18183C35.7693 2.17574 35.8553 2.1666 35.9381 2.14832C36.1315 2.10264 36.2819 1.99604 36.3709 1.81634C36.4415 1.67624 36.4906 1.53005 36.5244 1.37472C36.5796 1.13411 36.6564 0.896543 36.6871 0.649842C36.7024 0.524968 36.7208 0.400095 36.7362 0.272176C36.7423 0.238673 36.7454 0.20517 36.7546 0.171668C36.773 0.138165 36.8006 0.110754 36.8405 0.107708C36.8804 0.104662 36.9173 0.125982 36.9295 0.168622C36.9449 0.214307 36.9572 0.263039 36.9602 0.31177C36.9756 0.537151 36.9909 0.762533 37.0063 0.99096C37.0216 1.19807 37.0308 1.40517 37.0523 1.60924C37.0707 1.77675 37.129 1.93513 37.2242 2.07827C37.3101 2.20924 37.4298 2.29147 37.571 2.34934C37.6631 2.38589 37.7521 2.42548 37.8442 2.45594C37.8933 2.47421 37.9486 2.4803 38.0007 2.49249C38.102 2.51685 38.2064 2.53817 38.3077 2.56558C38.3537 2.57777 38.3844 2.61127 38.3875 2.66C38.3936 2.70569 38.366 2.75137 38.3169 2.76965C38.2831 2.78183 38.2463 2.79097 38.2095 2.79097C38.1297 2.79401 38.0468 2.79097 37.967 2.79097C37.9731 2.78487 37.9731 2.77878 37.9731 2.77574Z" fill="#F1F1F1"/>
<path d="M41.9831 17.2078C41.9075 17.2146 41.832 17.218 41.7581 17.2283C41.6482 17.2453 41.564 17.3032 41.5125 17.4021C41.4782 17.4685 41.4473 17.5367 41.4215 17.6083C41.3528 17.794 41.3116 17.9883 41.2601 18.1775C41.2532 18.203 41.2515 18.232 41.2463 18.2576C41.2446 18.2678 41.2429 18.2797 41.2377 18.2882C41.2257 18.3138 41.2034 18.3274 41.1776 18.324C41.1519 18.3206 41.1313 18.3002 41.1296 18.2712C41.1278 18.2559 41.1278 18.2388 41.1313 18.2218C41.1416 18.157 41.1381 18.094 41.1313 18.0309C41.1175 17.9065 41.0986 17.7821 41.0591 17.6628C41.0093 17.5214 40.9338 17.397 40.8153 17.2998C40.7552 17.2504 40.6933 17.2027 40.6315 17.1533C40.5371 17.0783 40.4289 17.0289 40.3172 16.9846C40.3001 16.9778 40.2795 16.9761 40.2589 16.9692C40.2451 16.9658 40.2297 16.9624 40.2159 16.9556C40.1867 16.942 40.1747 16.913 40.1816 16.884C40.1884 16.8568 40.2142 16.8397 40.2451 16.8431C40.2674 16.8448 40.2915 16.85 40.3138 16.8568C40.4409 16.896 40.5714 16.8874 40.7019 16.8755C40.75 16.8721 40.7981 16.867 40.8445 16.8568C40.9527 16.8312 41.0368 16.7716 41.0866 16.671C41.1261 16.5926 41.1536 16.5108 41.1725 16.4239C41.2034 16.2893 41.2463 16.1564 41.2635 16.0183C41.2721 15.9485 41.2824 15.8786 41.291 15.807C41.2944 15.7883 41.2961 15.7695 41.3013 15.7508C41.3116 15.732 41.3271 15.7167 41.3494 15.715C41.3717 15.7133 41.3923 15.7252 41.3992 15.7491C41.4078 15.7746 41.4146 15.8019 41.4164 15.8292C41.4249 15.9553 41.4335 16.0814 41.4421 16.2092C41.4507 16.3251 41.4559 16.441 41.4679 16.5551C41.4782 16.6489 41.5108 16.7375 41.564 16.8176C41.6121 16.8909 41.6791 16.9369 41.7581 16.9692C41.8096 16.9897 41.8594 17.0118 41.911 17.0289C41.9384 17.0391 41.9693 17.0425 41.9985 17.0493C42.0552 17.063 42.1136 17.0749 42.1703 17.0902C42.196 17.0971 42.2132 17.1158 42.2149 17.1431C42.2184 17.1686 42.2029 17.1942 42.1754 17.2044C42.1565 17.2112 42.1359 17.2163 42.1153 17.2163C42.0707 17.218 42.0243 17.2163 41.9796 17.2163C41.9831 17.2129 41.9831 17.2095 41.9831 17.2078Z" fill="#F1F1F1"/>
<path d="M7.25209 5.45174C7.1533 5.46066 7.05452 5.46511 6.95798 5.47848C6.81429 5.50076 6.70429 5.5765 6.63693 5.70571C6.59203 5.79259 6.55162 5.88171 6.51794 5.97527C6.42814 6.2181 6.37426 6.47207 6.30691 6.71935C6.29793 6.75277 6.29568 6.79064 6.28895 6.82406C6.2867 6.83742 6.28445 6.85302 6.27772 6.86416C6.262 6.89757 6.23282 6.9154 6.19914 6.91094C6.16547 6.90648 6.13852 6.87975 6.13628 6.84188C6.13403 6.82183 6.13403 6.79955 6.13852 6.77727C6.152 6.69262 6.1475 6.61019 6.13852 6.52776C6.12056 6.36513 6.09587 6.20251 6.04423 6.04656C5.97912 5.86166 5.88034 5.69903 5.72543 5.57204C5.64685 5.50744 5.56603 5.44506 5.48521 5.38046C5.36173 5.28243 5.22029 5.21783 5.07436 5.15991C5.0519 5.15099 5.02496 5.14877 4.99802 5.13986C4.98006 5.1354 4.95986 5.13094 4.9419 5.12203C4.90373 5.10421 4.88801 5.06634 4.89699 5.02847C4.90597 4.99282 4.93965 4.97054 4.98006 4.975C5.00925 4.97723 5.04068 4.98391 5.06987 4.99282C5.236 5.04406 5.40663 5.03292 5.57725 5.01733C5.64012 5.01287 5.70298 5.00619 5.7636 4.99282C5.90504 4.9594 6.01505 4.88143 6.08015 4.74999C6.13179 4.64752 6.16771 4.54058 6.19241 4.42697C6.23282 4.25097 6.28895 4.0772 6.3114 3.89675C6.32262 3.80542 6.33609 3.71408 6.34732 3.62051C6.35181 3.596 6.35405 3.5715 6.36079 3.54699C6.37426 3.52249 6.39446 3.50244 6.42365 3.50021C6.45284 3.49798 6.47978 3.51358 6.48876 3.54476C6.49998 3.57818 6.50896 3.61383 6.51121 3.64947C6.52243 3.81433 6.53366 3.97918 6.54488 4.14627C6.55611 4.29775 6.56284 4.44924 6.57856 4.5985C6.59203 4.72103 6.63469 4.83688 6.70429 4.94158C6.76715 5.03738 6.85471 5.09753 6.95798 5.13986C7.02533 5.16659 7.09044 5.19555 7.15779 5.21783C7.19371 5.23119 7.23412 5.23565 7.27229 5.24456C7.34638 5.26238 7.42271 5.27798 7.4968 5.29803C7.53048 5.30694 7.55293 5.33144 7.55517 5.36709C7.55966 5.40051 7.53946 5.43392 7.50353 5.44729C7.47884 5.4562 7.4519 5.46288 7.42496 5.46288C7.36658 5.46511 7.30597 5.46288 7.2476 5.46288C7.25209 5.45843 7.25209 5.45397 7.25209 5.45174Z" fill="#F1F1F1"/>
<path d="M2.24394 12.1402C2.18445 12.1455 2.12496 12.1482 2.06683 12.1563C1.9803 12.1697 1.91405 12.2153 1.87349 12.2931C1.84645 12.3454 1.82212 12.3991 1.80184 12.4555C1.74776 12.6017 1.71531 12.7546 1.67475 12.9035C1.66934 12.9237 1.66799 12.9465 1.66393 12.9666C1.66258 12.9746 1.66123 12.984 1.65717 12.9907C1.64771 13.0109 1.63013 13.0216 1.60985 13.0189C1.58957 13.0162 1.57335 13.0001 1.572 12.9773C1.57065 12.9652 1.57065 12.9518 1.57335 12.9384C1.58146 12.8874 1.57876 12.8378 1.57335 12.7882C1.56253 12.6902 1.54766 12.5923 1.51657 12.4984C1.47736 12.387 1.41787 12.2891 1.32459 12.2126C1.27727 12.1737 1.22859 12.1362 1.17992 12.0973C1.10556 12.0382 1.02039 11.9993 0.932509 11.9644C0.918989 11.9591 0.902765 11.9577 0.886541 11.9524C0.875725 11.9497 0.863558 11.947 0.852742 11.9416C0.829758 11.9309 0.820294 11.9081 0.825702 11.8853C0.83111 11.8638 0.85139 11.8504 0.875725 11.8531C0.893301 11.8544 0.912229 11.8585 0.929805 11.8638C1.02985 11.8947 1.1326 11.888 1.23535 11.8786C1.27321 11.8759 1.31107 11.8719 1.34757 11.8638C1.43274 11.8437 1.49899 11.7967 1.5382 11.7176C1.56929 11.6559 1.59093 11.5915 1.6058 11.5231C1.63013 11.4171 1.66393 11.3124 1.67745 11.2038C1.68421 11.1488 1.69233 11.0938 1.69909 11.0374C1.70179 11.0227 1.70314 11.0079 1.7072 10.9931C1.71531 10.9784 1.72748 10.9663 1.74505 10.965C1.76263 10.9636 1.77885 10.973 1.78426 10.9918C1.79102 11.0119 1.79643 11.0334 1.79778 11.0549C1.80454 11.1541 1.8113 11.2534 1.81806 11.354C1.82482 11.4453 1.82888 11.5365 1.83834 11.6264C1.84645 11.7001 1.87214 11.7699 1.91405 11.833C1.95191 11.8907 2.00463 11.9269 2.06683 11.9524C2.10739 11.9685 2.14659 11.9859 2.18715 11.9993C2.20878 12.0074 2.23312 12.0101 2.2561 12.0154C2.30072 12.0261 2.34669 12.0355 2.3913 12.0476C2.41158 12.053 2.4251 12.0677 2.42645 12.0892C2.42916 12.1093 2.41699 12.1295 2.39536 12.1375C2.38049 12.1429 2.36426 12.1469 2.34804 12.1469C2.31289 12.1482 2.27638 12.1469 2.24123 12.1469C2.24394 12.1442 2.24394 12.1415 2.24394 12.1402Z" fill="#F1F1F1"/>
<path d="M19.2088 1.28276C19.1493 1.28813 19.0898 1.29081 19.0317 1.29886C18.9451 1.31228 18.8789 1.35789 18.8383 1.4357C18.8113 1.48802 18.787 1.54168 18.7667 1.59803C18.7126 1.74426 18.6802 1.8972 18.6396 2.04611C18.6342 2.06624 18.6328 2.08904 18.6288 2.10917C18.6274 2.11722 18.6261 2.12661 18.622 2.13331C18.6126 2.15344 18.595 2.16417 18.5747 2.16149C18.5544 2.1588 18.5382 2.14271 18.5368 2.1199C18.5355 2.10783 18.5355 2.09441 18.5382 2.08099C18.5463 2.03001 18.5436 1.98038 18.5382 1.93074C18.5274 1.8328 18.5125 1.73487 18.4814 1.64096C18.4422 1.52961 18.3827 1.43167 18.2894 1.35521C18.2421 1.3163 18.1934 1.27874 18.1448 1.23983C18.0704 1.1808 17.9852 1.1419 17.8974 1.10702C17.8838 1.10165 17.8676 1.10031 17.8514 1.09494C17.8406 1.09226 17.8284 1.08958 17.8176 1.08421C17.7946 1.07348 17.7851 1.05067 17.7905 1.02786C17.796 1.0064 17.8162 0.992982 17.8406 0.995666C17.8581 0.997007 17.8771 1.00103 17.8946 1.0064C17.9947 1.03725 18.0974 1.03055 18.2002 1.02116C18.2381 1.01847 18.2759 1.01445 18.3124 1.0064C18.3976 0.986275 18.4638 0.93932 18.503 0.860167C18.5341 0.798455 18.5558 0.73406 18.5706 0.66564C18.595 0.559656 18.6288 0.455014 18.6423 0.346347C18.6491 0.291343 18.6572 0.236338 18.6639 0.179993C18.6666 0.165235 18.668 0.150478 18.672 0.135721C18.6802 0.120964 18.6923 0.10889 18.7099 0.107548C18.7275 0.106206 18.7437 0.115597 18.7491 0.134379C18.7559 0.154503 18.7613 0.175968 18.7626 0.197433C18.7694 0.296709 18.7761 0.395985 18.7829 0.496603C18.7897 0.587829 18.7937 0.679056 18.8032 0.768941C18.8113 0.842727 18.837 0.912488 18.8789 0.975542C18.9168 1.03323 18.9695 1.06945 19.0317 1.09494C19.0722 1.11104 19.1114 1.12848 19.152 1.1419C19.1736 1.14995 19.198 1.15263 19.2209 1.158C19.2656 1.16873 19.3115 1.17812 19.3561 1.19019C19.3764 1.19556 19.3899 1.21032 19.3913 1.23178C19.394 1.2519 19.3818 1.27203 19.3602 1.28008C19.3453 1.28544 19.3291 1.28947 19.3129 1.28947C19.2777 1.29081 19.2412 1.28947 19.2061 1.28947C19.2088 1.28679 19.2088 1.2841 19.2088 1.28276Z" fill="#F1F1F1"/>
<path d="M5.41711 29.2395C5.36673 29.244 5.31636 29.2463 5.26713 29.2531C5.19385 29.2645 5.13775 29.3031 5.1034 29.369C5.08051 29.4133 5.0599 29.4587 5.04272 29.5064C4.99693 29.6303 4.96945 29.7598 4.9351 29.8859C4.93052 29.9029 4.92938 29.9222 4.92594 29.9393C4.9248 29.9461 4.92365 29.9541 4.92022 29.9597C4.9122 29.9768 4.89732 29.9859 4.88015 29.9836C4.86297 29.9813 4.84923 29.9677 4.84809 29.9484C4.84694 29.9381 4.84694 29.9268 4.84923 29.9154C4.8561 29.8723 4.85381 29.8302 4.84923 29.7882C4.84007 29.7053 4.82748 29.6223 4.80115 29.5428C4.76795 29.4485 4.71757 29.3656 4.63857 29.3008C4.5985 29.2679 4.55728 29.236 4.51607 29.2031C4.4531 29.1531 4.38097 29.1202 4.30655 29.0906C4.2951 29.0861 4.28136 29.0849 4.26762 29.0804C4.25846 29.0781 4.24816 29.0759 4.239 29.0713C4.21953 29.0622 4.21152 29.0429 4.2161 29.0236C4.22068 29.0054 4.23785 28.9941 4.25846 28.9963C4.27335 28.9975 4.28937 29.0009 4.30426 29.0054C4.38898 29.0316 4.47599 29.0259 4.56301 29.0179C4.59506 29.0156 4.62712 29.0122 4.65803 29.0054C4.73016 28.9884 4.78626 28.9486 4.81947 28.8816C4.8458 28.8293 4.86412 28.7748 4.87671 28.7169C4.89732 28.6271 4.92594 28.5385 4.93739 28.4465C4.94312 28.3999 4.94999 28.3533 4.95571 28.3056C4.958 28.2931 4.95915 28.2806 4.96258 28.2681C4.96945 28.2556 4.97975 28.2454 4.99464 28.2442C5.00952 28.2431 5.02326 28.2511 5.02784 28.267C5.03356 28.284 5.03814 28.3022 5.03929 28.3204C5.04501 28.4044 5.05074 28.4885 5.05646 28.5737C5.06219 28.651 5.06562 28.7282 5.07364 28.8043C5.08051 28.8668 5.10226 28.9259 5.13775 28.9793C5.16981 29.0281 5.21446 29.0588 5.26713 29.0804C5.30147 29.094 5.33467 29.1088 5.36902 29.1202C5.38734 29.127 5.40795 29.1293 5.42741 29.1338C5.46519 29.1429 5.50412 29.1508 5.5419 29.1611C5.55908 29.1656 5.57053 29.1781 5.57167 29.1963C5.57396 29.2133 5.56366 29.2304 5.54534 29.2372C5.53274 29.2417 5.519 29.2451 5.50527 29.2451C5.4755 29.2463 5.44459 29.2451 5.41482 29.2451C5.41711 29.2429 5.41711 29.2406 5.41711 29.2395Z" fill="#F1F1F1"/>
<path d="M14.2413 22.1398C14.191 22.1444 14.1406 22.1467 14.0913 22.1535C14.0181 22.1648 13.962 22.2035 13.9276 22.2694C13.9047 22.3137 13.8841 22.3591 13.8669 22.4068C13.8211 22.5307 13.7937 22.6602 13.7593 22.7863C13.7547 22.8033 13.7536 22.8226 13.7502 22.8397C13.749 22.8465 13.7479 22.8544 13.7444 22.8601C13.7364 22.8772 13.7215 22.8863 13.7044 22.884C13.6872 22.8817 13.6735 22.8681 13.6723 22.8488C13.6712 22.8385 13.6712 22.8272 13.6735 22.8158C13.6803 22.7726 13.678 22.7306 13.6735 22.6886C13.6643 22.6056 13.6517 22.5227 13.6254 22.4432C13.5922 22.3489 13.5418 22.266 13.4628 22.2012C13.4227 22.1683 13.3815 22.1364 13.3403 22.1035C13.2773 22.0535 13.2052 22.0206 13.1308 21.991C13.1193 21.9865 13.1056 21.9853 13.0918 21.9808C13.0827 21.9785 13.0724 21.9763 13.0632 21.9717C13.0438 21.9626 13.0357 21.9433 13.0403 21.924C13.0449 21.9058 13.0621 21.8945 13.0827 21.8967C13.0976 21.8979 13.1136 21.9013 13.1285 21.9058C13.2132 21.9319 13.3002 21.9263 13.3872 21.9183C13.4193 21.916 13.4513 21.9126 13.4823 21.9058C13.5544 21.8888 13.6105 21.849 13.6437 21.782C13.67 21.7297 13.6883 21.6752 13.7009 21.6172C13.7215 21.5275 13.7502 21.4389 13.7616 21.3469C13.7673 21.3003 13.7742 21.2537 13.7799 21.206C13.7822 21.1935 13.7834 21.181 13.7868 21.1685C13.7937 21.156 13.804 21.1458 13.8189 21.1446C13.8337 21.1435 13.8475 21.1515 13.8521 21.1674C13.8578 21.1844 13.8624 21.2026 13.8635 21.2208C13.8692 21.3048 13.875 21.3889 13.8807 21.4741C13.8864 21.5514 13.8898 21.6286 13.8979 21.7047C13.9047 21.7672 13.9265 21.8263 13.962 21.8797C13.994 21.9285 14.0387 21.9592 14.0913 21.9808C14.1257 21.9944 14.1589 22.0092 14.1932 22.0206C14.2116 22.0274 14.2322 22.0296 14.2516 22.0342C14.2894 22.0433 14.3283 22.0512 14.3661 22.0615C14.3833 22.066 14.3947 22.0785 14.3959 22.0967C14.3982 22.1137 14.3879 22.1308 14.3696 22.1376C14.357 22.1421 14.3432 22.1455 14.3295 22.1455C14.2997 22.1467 14.2688 22.1455 14.239 22.1455C14.2413 22.1433 14.2413 22.141 14.2413 22.1398Z" fill="#F1F1F1"/>
<path d="M28.4913 31.8072C28.441 31.8125 28.3906 31.8152 28.3413 31.8231C28.2681 31.8364 28.212 31.8816 28.1776 31.9587C28.1547 32.0106 28.1341 32.0637 28.1169 32.1196C28.0711 32.2645 28.0437 32.416 28.0093 32.5636C28.0047 32.5835 28.0036 32.6061 28.0002 32.626C27.999 32.634 27.9979 32.6433 27.9944 32.65C27.9864 32.6699 27.9715 32.6805 27.9544 32.6779C27.9372 32.6752 27.9235 32.6593 27.9223 32.6367C27.9212 32.6247 27.9212 32.6114 27.9235 32.5981C27.9303 32.5476 27.928 32.4984 27.9235 32.4492C27.9143 32.3522 27.9017 32.2552 27.8754 32.1621C27.8422 32.0518 27.7918 31.9547 27.7128 31.879C27.6727 31.8404 27.6315 31.8032 27.5903 31.7646C27.5273 31.7062 27.4552 31.6676 27.3808 31.633C27.3693 31.6277 27.3556 31.6264 27.3418 31.6211C27.3327 31.6184 27.3224 31.6158 27.3132 31.6104C27.2938 31.5998 27.2857 31.5772 27.2903 31.5546C27.2949 31.5333 27.3121 31.5201 27.3327 31.5227C27.3476 31.524 27.3636 31.528 27.3785 31.5333C27.4632 31.5639 27.5502 31.5573 27.6372 31.548C27.6693 31.5453 27.7013 31.5413 27.7323 31.5333C27.8044 31.5134 27.8605 31.4669 27.8937 31.3885C27.92 31.3273 27.9383 31.2635 27.9509 31.1957C27.9715 31.0907 28.0002 30.987 28.0116 30.8793C28.0173 30.8248 28.0242 30.7703 28.0299 30.7145C28.0322 30.6999 28.0334 30.6852 28.0368 30.6706C28.0437 30.656 28.054 30.644 28.0689 30.6427C28.0837 30.6414 28.0975 30.6507 28.1021 30.6693C28.1078 30.6892 28.1124 30.7105 28.1135 30.7318C28.1192 30.8301 28.125 30.9285 28.1307 31.0282C28.1364 31.1186 28.1398 31.209 28.1479 31.2981C28.1547 31.3712 28.1765 31.4403 28.212 31.5028C28.244 31.5599 28.2887 31.5958 28.3413 31.6211C28.3757 31.637 28.4089 31.6543 28.4432 31.6676C28.4616 31.6756 28.4822 31.6782 28.5016 31.6836C28.5394 31.6942 28.5783 31.7035 28.6161 31.7155C28.6333 31.7208 28.6447 31.7354 28.6459 31.7567C28.6482 31.7766 28.6379 31.7966 28.6196 31.8045C28.607 31.8098 28.5932 31.8138 28.5795 31.8138C28.5497 31.8152 28.5188 31.8138 28.489 31.8138C28.4913 31.8112 28.4913 31.8085 28.4913 31.8072Z" fill="#F1F1F1"/>
<path d="M24.3425 13.8133C24.2669 13.8201 24.1913 13.8235 24.1175 13.8337C24.0076 13.8508 23.9234 13.9087 23.8719 14.0076C23.8376 14.074 23.8066 14.1422 23.7809 14.2138C23.7122 14.3995 23.671 14.5938 23.6194 14.7829C23.6126 14.8085 23.6109 14.8375 23.6057 14.863C23.604 14.8733 23.6023 14.8852 23.5971 14.8937C23.5851 14.9193 23.5628 14.9329 23.537 14.9295C23.5113 14.9261 23.4906 14.9056 23.4889 14.8767C23.4872 14.8613 23.4872 14.8443 23.4906 14.8272C23.501 14.7625 23.4975 14.6994 23.4906 14.6364C23.4769 14.512 23.458 14.3876 23.4185 14.2683C23.3687 14.1268 23.2932 14.0024 23.1747 13.9053C23.1145 13.8559 23.0527 13.8082 22.9909 13.7588C22.8964 13.6838 22.7882 13.6344 22.6766 13.59C22.6594 13.5832 22.6388 13.5815 22.6182 13.5747C22.6045 13.5713 22.589 13.5679 22.5753 13.5611C22.5461 13.5474 22.5341 13.5185 22.5409 13.4895C22.5478 13.4622 22.5736 13.4452 22.6045 13.4486C22.6268 13.4503 22.6509 13.4554 22.6732 13.4622C22.8003 13.5014 22.9308 13.4929 23.0613 13.481C23.1094 13.4776 23.1575 13.4725 23.2038 13.4622C23.312 13.4367 23.3962 13.377 23.446 13.2765C23.4855 13.1981 23.513 13.1163 23.5319 13.0294C23.5628 12.8948 23.6057 12.7618 23.6229 12.6238C23.6315 12.5539 23.6418 12.4841 23.6504 12.4125C23.6538 12.3938 23.6555 12.375 23.6607 12.3563C23.671 12.3375 23.6864 12.3222 23.7088 12.3205C23.7311 12.3188 23.7517 12.3307 23.7586 12.3546C23.7671 12.3801 23.774 12.4074 23.7757 12.4346C23.7843 12.5608 23.7929 12.6869 23.8015 12.8147C23.8101 12.9305 23.8152 13.0464 23.8273 13.1606C23.8376 13.2543 23.8702 13.3429 23.9234 13.423C23.9715 13.4963 24.0385 13.5423 24.1175 13.5747C24.169 13.5952 24.2188 13.6173 24.2703 13.6344C24.2978 13.6446 24.3287 13.648 24.3579 13.6548C24.4146 13.6684 24.473 13.6804 24.5297 13.6957C24.5554 13.7025 24.5726 13.7213 24.5743 13.7485C24.5777 13.7741 24.5623 13.7997 24.5348 13.8099C24.5159 13.8167 24.4953 13.8218 24.4747 13.8218C24.43 13.8235 24.3837 13.8218 24.339 13.8218C24.3425 13.8184 24.3425 13.815 24.3425 13.8133Z" fill="#F1F1F1"/>
</svg>
