<svg xmlns="http://www.w3.org/2000/svg" xmlns:xlink="http://www.w3.org/1999/xlink" viewBox="0,0,256,256" width="64px" height="64px"><defs><linearGradient x1="32" y1="5.25" x2="32" y2="58.834" gradientUnits="userSpaceOnUse" id="color-1"><stop offset="0" stop-color="#c2c653"></stop><stop offset="1" stop-color="#000000"></stop></linearGradient><linearGradient x1="32.305" y1="17.5" x2="32.305" y2="46.527" gradientUnits="userSpaceOnUse" id="color-2"><stop offset="0" stop-color="#c2c653"></stop><stop offset="1" stop-color="#000000"></stop></linearGradient></defs><g fill="none" fill-rule="none" stroke="none" stroke-width="1" stroke-linecap="butt" stroke-linejoin="miter" stroke-miterlimit="10" stroke-dasharray="" stroke-dashoffset="0" font-family="none" font-weight="none" font-size="none" text-anchor="none" style="mix-blend-mode: normal"><g transform="scale(4,4)"><path d="M6.399,57.699l3.792,-13.847c-2.076,-3.74 -3.17,-7.975 -3.168,-12.272c0.005,-13.939 11.35,-25.279 25.289,-25.279c6.762,0.003 13.115,2.636 17.889,7.414c4.774,4.778 7.402,11.151 7.4,17.944c-0.006,13.974 -11.351,25.341 -25.289,25.341c-4.024,0 -8.073,-1.019 -11.744,-2.95zM20.828,51.918l0.346,0.188c3.471,1.893 7.318,2.894 11.128,2.894c12.846,0 23.293,-10.471 23.299,-23.341c0.002,-6.26 -2.418,-12.13 -6.814,-16.53c-4.396,-4.4 -10.249,-6.825 -16.475,-6.828c-12.836,0 -23.283,10.443 -23.288,23.279c-0.002,4.089 1.072,8.113 3.107,11.639l0.209,0.361l-3.101,11.322zM32.312,53c-3.686,0 -7.415,-1.06 -10.793,-3.063l-0.437,-0.318l-8.854,2.323l2.382,-8.691l-0.244,-0.387c-2.123,-3.376 -3.243,-7.271 -3.241,-11.269c0.004,-11.67 9.513,-21.165 21.195,-21.165c5.642,0.002 10.961,2.218 14.979,6.239c4,4.003 6.202,9.345 6.2,15.039c-0.004,11.74 -9.509,21.292 -21.187,21.292zM22.583,48.242c3.058,1.805 6.418,2.758 9.721,2.758c10.584,0 19.191,-8.654 19.195,-19.292c0.002,-5.161 -1.992,-10 -5.614,-13.625c-3.642,-3.644 -8.459,-5.651 -13.565,-5.653c-10.581,0 -19.191,8.598 -19.195,19.166c-0.002,3.619 1.012,7.146 2.933,10.201l0.715,1.131l-1.698,6.199l6.429,-1.687z" fill="url(#color-1)" fill-rule="nonzero"></path><path d="M26.12,21.219c-0.464,-1.031 -0.952,-1.052 -1.394,-1.07c-0.361,-0.015 -0.774,-0.015 -1.187,-0.015c-0.413,0 -1.084,0.155 -1.651,0.775c-0.568,0.62 -2.168,2.118 -2.168,5.164c0,3.047 2.219,5.991 2.529,6.405c0.31,0.413 4.284,6.865 10.579,9.347c5.231,2.063 6.296,1.653 7.431,1.549c1.135,-0.103 3.664,-1.498 4.18,-2.944c0.516,-1.446 0.516,-2.685 0.361,-2.944c-0.155,-0.258 -0.568,-0.413 -1.187,-0.723c-0.619,-0.31 -3.664,-1.808 -4.232,-2.014c-0.568,-0.206 -0.981,-0.31 -1.394,0.31c-0.413,0.619 -1.599,2.014 -1.96,2.427c-0.361,0.414 -0.723,0.465 -1.342,0.156c-0.619,-0.311 -2.614,-0.964 -4.98,-3.074c-1.841,-1.641 -3.084,-3.668 -3.445,-4.288c-0.361,-0.619 -0.039,-0.955 0.272,-1.264c0.278,-0.277 0.619,-0.723 0.929,-1.085c0.309,-0.362 0.412,-0.62 0.619,-1.033c0.206,-0.414 0.103,-0.775 -0.052,-1.085c-0.155,-0.31 -1.358,-3.37 -1.908,-4.594z" fill="url(#color-2)" fill-rule="evenodd"></path></g></g></svg>